<?xml version="1.0" standalone="no"?>
<!DOCTYPE svg PUBLIC "-//W3C//DTD SVG 20010904//EN"
 "http://www.w3.org/TR/2001/REC-SVG-20010904/DTD/svg10.dtd">
<svg version="1.0" xmlns="http://www.w3.org/2000/svg"
 width="128.000000pt" height="128.000000pt" viewBox="0 0 128.000000 128.000000"
 preserveAspectRatio="xMidYMid meet">
<metadata>
Created by potrace 1.11, written by Peter Selinger 2001-2013
</metadata>
<g transform="translate(0.000000,128.000000) scale(0.100000,-0.100000)"
fill="#000000" stroke="none">
<path d="M777 1075 c-15 -14 -40 -25 -54 -25 -14 0 -40 -13 -59 -30 -37 -32
-65 -31 -56 2 4 18 2 19 -16 9 -11 -6 -24 -16 -28 -23 -11 -17 -14 -138 -5
-157 6 -10 5 -24 -1 -34 -29 -53 -16 -191 24 -242 10 -14 17 -29 14 -33 -8
-13 -181 -20 -226 -9 -8 2 -31 7 -50 11 -46 10 -144 98 -136 123 3 10 8 34 11
55 6 30 4 38 -14 48 -53 28 -107 -44 -90 -119 4 -19 7 -37 5 -38 -2 -2 -40
-10 -58 -12 -19 -2 -38 -35 -31 -55 4 -11 8 -37 9 -56 10 -129 30 -149 173
-166 97 -12 211 -4 280 21 22 8 41 11 42 7 0 -4 2 -38 4 -77 2 -38 4 -78 4
-87 1 -17 25 -18 366 -18 404 0 375 -5 388 67 5 26 -1 41 -42 95 -70 92 -141
152 -238 200 l-85 42 33 28 c71 58 71 59 66 91 -2 17 3 47 11 67 20 48 24 137
7 169 -23 42 -110 131 -129 131 -10 0 -29 9 -43 20 -33 25 -42 25 -76 -5z"/>
</g>
</svg>
